<?xml version="1.0" encoding="UTF-8" standalone="no"?>
<!-- Generator: Adobe Illustrator 23.0.3, SVG Export Plug-In . SVG Version: 6.00 Build 0)  -->
<svg xmlns:dc="http://purl.org/dc/elements/1.1/" xmlns:cc="http://creativecommons.org/ns#" xmlns:rdf="http://www.w3.org/1999/02/22-rdf-syntax-ns#" xmlns:svg="http://www.w3.org/2000/svg" xmlns="http://www.w3.org/2000/svg" xmlns:sodipodi="http://sodipodi.sourceforge.net/DTD/sodipodi-0.dtd" xmlns:inkscape="http://www.inkscape.org/namespaces/inkscape" version="1.1" id="sticky-logo" x="0px" y="0px" viewBox="14 0 472 150" xml:space="preserve" sodipodi:docname="logo.svg" width="100%" inkscape:version="0.92.2 5c3e80d, 2017-08-06" height="100%"><metadata id="metadata27"><rdf:RDF><cc:Work rdf:about=""><dc:format>image/svg+xml</dc:format><dc:type rdf:resource="http://purl.org/dc/dcmitype/StillImage"/><dc:title/></cc:Work></rdf:RDF></metadata><defs id="defs25"/><sodipodi:namedview pagecolor="#ffffff" bordercolor="#666666" borderopacity="1" objecttolerance="10" gridtolerance="10" guidetolerance="10" inkscape:pageopacity="0" inkscape:pageshadow="2" inkscape:window-width="2074" inkscape:window-height="996" id="namedview23" showgrid="true" showguides="false" inkscape:zoom="2.2787281" inkscape:cx="254.96522" inkscape:cy="78.337022" inkscape:window-x="536" inkscape:window-y="214" inkscape:window-maximized="0" inkscape:current-layer="sticky-logo"><inkscape:grid type="xygrid" id="grid29"/></sodipodi:namedview><style type="text/css" id="style2">
	.st0{fill:#FFFFFF;}
</style><path class="st0" d="m 15.19,96.27 9.34,-11.15 c 5.51,4.61 12.45,7.17 19.63,7.26 4.5,0 6.92,-1.56 6.92,-4.15 v -0.17 c 0,-2.51 -2,-3.89 -10.2,-5.79 C 28,79.32 18,75.69 18,63.24 V 63.07 C 18,51.83 27,43.7 41.48,43.7 c 10.29,0 18.33,2.77 24.9,8 L 58,63.59 c -5.53,-3.89 -11.59,-6 -16.95,-6 C 37,57.62 35,59.35 35,61.51 v 0.17 c 0,2.77 2.07,4 10.46,5.88 C 59.38,70.59 68,75.09 68,86.41 v 0.17 C 68,99 58.25,106.3 43.55,106.3 32.83,106.3 22.63,102.93 15.19,96.27 Z" id="path4" inkscape:connector-curvature="0" style="fill:#ffffff"/><path class="st0" d="M 87.47,59.44 H 69.31 v -14.7 h 53.09 v 14.7 h -18.16 v 45.83 H 87.47 Z" id="path6" inkscape:connector-curvature="0" style="fill:#ffffff"/><path class="st0" d="m 126.63,44.74 h 16.86 v 60.52 h -16.86 z" id="path8" inkscape:connector-curvature="0" style="fill:#ffffff"/><path class="st0" d="M 149,75.17 V 75 c 0,-17.64 13.58,-31.47 31.9,-31.47 12.36,0 20.32,5.19 25.68,12.62 L 194,65.92 c -3.46,-4.32 -7.44,-7.09 -13.23,-7.09 -8.47,0 -14.44,7.18 -14.44,16 V 75 c 0,9.08 6,16.17 14.44,16.17 6.31,0 10,-2.94 13.66,-7.35 l 12.62,9 c -5.71,7.87 -13.4,13.66 -26.8,13.66 C 162.94,106.47 149,93.24 149,75.17 Z" id="path10" inkscape:connector-curvature="0" style="fill:#ffffff"/><path class="st0" d="m 210.75,44.74 h 16.77 v 24.55 l 20.84,-24.56 h 19.89 l -22.91,26 23.66,34.53 h -20.12 l -15.22,-22.48 -6.14,6.83 v 15.65 h -16.77 z" id="path12" inkscape:connector-curvature="0" style="fill:#ffffff"/><path class="st0" d="m 283.54,82.61 -23,-37.87 h 19.11 l 12.45,22 12.54,-22 h 18.76 l -23,37.61 v 22.91 h -16.86 z" id="path14" inkscape:connector-curvature="0" style="fill:#ffffff"/><path class="st0" d="M 343.54,75.17 V 75 c 0,-17.64 13.58,-31.47 31.9,-31.47 12.36,0 20.32,5.19 25.68,12.62 l -12.62,9.77 c -3.46,-4.32 -7.44,-7.09 -13.23,-7.09 -8.47,0 -14.44,7.18 -14.44,16 V 75 c 0,9.08 6,16.17 14.44,16.17 6.31,0 10,-2.94 13.66,-7.35 l 12.62,9 c -5.71,7.87 -13.4,13.66 -26.8,13.66 -17.29,-0.01 -31.21,-13.24 -31.21,-31.31 z" id="path16" inkscape:connector-curvature="0" style="fill:#ffffff"/><path class="st0" d="M 401.47,75.17 V 75 c 0,-17.38 14,-31.47 32.68,-31.47 18.68,0 32.51,13.92 32.51,31.3 V 75 c 0,17.38 -14,31.47 -32.68,31.47 -18.68,0 -32.51,-13.92 -32.51,-31.3 z m 48.07,0 V 75 c 0,-8.73 -6.31,-16.34 -15.56,-16.34 -9.25,0 -15.3,7.44 -15.3,16.17 V 75 c 0,8.73 6.31,16.34 15.48,16.34 9.17,0 15.38,-7.43 15.38,-16.17 z" id="path18" inkscape:connector-curvature="0" style="fill:#ffffff"/><path class="st0" d="m 467.69,88.4 h 17.12 v 16.86 h -17.12 z" id="path20" inkscape:connector-curvature="0" style="fill:#ffffff"/></svg>